<svg width="17" height="17" viewBox="0 0 10 17" fill="none" xmlns="http://www.w3.org/2000/svg">
<path d="M9.1575 1.36714C9.06558 1.27499 8.95638 1.20187 8.83615 1.15198C8.71593 1.1021 8.58704 1.07642 8.45688 1.07642C8.32671 1.07642 8.19783 1.1021 8.0776 1.15198C7.95738 1.20187 7.84818 1.27499 7.75625 1.36714L1.1775 7.94589C1.10411 8.01913 1.04589 8.10613 1.00616 8.2019C0.966433 8.29767 0.945984 8.40033 0.945984 8.50402C0.945984 8.6077 0.966433 8.71037 1.00616 8.80614C1.04589 8.90191 1.10411 8.9889 1.1775 9.06214L7.75625 15.6409C8.14417 16.0288 8.76959 16.0288 9.1575 15.6409C9.54542 15.253 9.54542 14.6276 9.1575 14.2396L3.42584 8.50006L9.16542 2.76048C9.54542 2.38048 9.54542 1.74714 9.1575 1.36714Z" fill="#1E232C" stroke="#1E232C" stroke-width="0.2"/>
</svg>
