<svg width="21" height="18" viewBox="0 0 21 18" fill="none" xmlns="http://www.w3.org/2000/svg">
<path fill-rule="evenodd" clip-rule="evenodd" d="M6.37479 0.666748C4.93783 0.666748 3.55974 1.23757 2.54366 2.25365C1.52758 3.26973 0.956757 4.64783 0.956757 6.08478C0.956757 7.52173 1.52758 8.89982 2.54366 9.9159L9.91072 17.283C9.9514 17.3236 9.99524 17.3592 10.0415 17.3897C10.3649 17.6033 10.8045 17.5677 11.0893 17.283L18.4564 9.9159C19.4724 8.89982 20.0433 7.52173 20.0433 6.08478C20.0433 4.64783 19.4724 3.26973 18.4564 2.25365C17.4403 1.23757 16.0622 0.666748 14.6252 0.666748C13.1883 0.666748 11.8102 1.23757 10.7941 2.25365L10.5 2.54775L10.2059 2.25365C9.18983 1.23757 7.81174 0.666748 6.37479 0.666748ZM11.0893 4.31561C10.8045 4.60038 10.3649 4.63597 10.0415 4.4224C9.99524 4.39188 9.9514 4.35629 9.91072 4.31561L9.02734 3.43223C8.32384 2.72873 7.36968 2.3335 6.37479 2.3335C5.37989 2.3335 4.42573 2.72873 3.72223 3.43223C3.01873 4.13573 2.62351 5.08988 2.62351 6.08478C2.62351 7.07968 3.01873 8.03383 3.72223 8.73733L10.5 15.5151L17.2778 8.73733C17.9813 8.03383 18.3765 7.07968 18.3765 6.08478C18.3765 5.08988 17.9813 4.13573 17.2778 3.43223C16.5743 2.72873 15.6201 2.3335 14.6252 2.3335C13.6303 2.3335 12.6762 2.72873 11.9727 3.43223L11.0893 4.31561Z" fill="#CBCBD4"/>
</svg>
