<svg width="20" height="20" viewBox="0 0 20 20" fill="none" xmlns="http://www.w3.org/2000/svg">
<path d="M9.99998 5.83325C10.4602 5.83325 10.8333 6.20635 10.8333 6.66658V9.16658H13.3333C13.7935 9.16658 14.1666 9.53968 14.1666 9.99992C14.1666 10.4602 13.7935 10.8333 13.3333 10.8333H10.8333V13.3333C10.8333 13.7935 10.4602 14.1666 9.99998 14.1666C9.53974 14.1666 9.16665 13.7935 9.16665 13.3333V10.8333H6.66665C6.20641 10.8333 5.83331 10.4602 5.83331 9.99992C5.83331 9.53968 6.20641 9.16658 6.66665 9.16658H9.16665V6.66658C9.16665 6.20635 9.53974 5.83325 9.99998 5.83325Z" fill="black" fill-opacity="0.75"/>
<path fill-rule="evenodd" clip-rule="evenodd" d="M0.833313 9.99992C0.833313 4.93731 4.93737 0.833252 9.99998 0.833252C15.0626 0.833252 19.1666 4.93731 19.1666 9.99992C19.1666 15.0625 15.0626 19.1666 9.99998 19.1666C4.93737 19.1666 0.833313 15.0625 0.833313 9.99992ZM9.99998 2.49992C5.85784 2.49992 2.49998 5.85778 2.49998 9.99992C2.49998 14.1421 5.85784 17.4999 9.99998 17.4999C14.1421 17.4999 17.5 14.1421 17.5 9.99992C17.5 5.85778 14.1421 2.49992 9.99998 2.49992Z" fill="black" fill-opacity="0.75"/>
</svg>
